<?xml version="1.0" ?><!-- Uploaded to: SVG Repo, www.svgrepo.com, Generator: SVG Repo Mixer Tools -->
<svg fill="#000000" width="800px" height="800px" viewBox="-22 0 163 163" xmlns="http://www.w3.org/2000/svg"><path d="     M 110.794283568859,76.1739801764488     C 110.794283568859,76.1739801764488 110.794283568859,161.858499765396 110.794283568859,161.858499765396     C 110.794283568859,161.858499765396 7.85621118545532,161.858499765396 7.85621118545532,161.858499765396     C 7.85621118545532,161.858499765396 7.85621118545532,76.1739801764488 7.85621118545532,76.1739801764488     C 7.85621118545532,76.1739801764488 1.99929058551788,76.1739801764488 1.99929058551788,76.1739801764488     C 1.99929058551788,76.1739801764488 16.3947927951813,32.9665757417679 16.3947927951813,32.9665757417679     C 16.3947927951813,32.9665757417679 34.3892308473587,32.9665757417679 34.3892308473587,32.9665757417679     C 34.3892308473587,32.9665757417679 35.5888051986694,31.6740763187408 35.5888051986694,31.6740763187408     C 35.5888051986694,31.6740763187408 35.5888051986694,10.9628403186798 35.5888051986694,10.9628403186798     C 35.5888051986694,10.9628403186798 47.5850664973259,10.9628403186798 47.5850664973259,10.9628403186798     C 47.5850664973259,10.9628403186798 47.5850664973259,18.7487128973007 47.5850664973259,18.7487128973007     C 47.5850664973259,18.7487128973007 57.781817317009,7.76232206821442 57.781817317009,7.76232206821442     C 57.781817317009,7.76232206821442 81.1744534373283,32.9665757417679 81.1744534373283,32.9665757417679     C 81.1744534373283,32.9665757417679 99.1689340472221,32.9665757417679 99.1689340472221,32.9665757417679     C 99.1689340472221,32.9665757417679 117.163201868534,76.1739801764488 117.163201868534,76.1739801764488     C 117.163201868534,76.1739801764488 110.794283568859,76.1739801764488 110.794283568859,76.1739801764488     Z     M 77.5756452679634,36.5671514868736     C 77.5756452679634,36.5671514868736 57.781817317009,14.9635318517685 57.781817317009,14.9635318517685     C 57.781817317009,14.9635318517685 37.9879964590073,36.5671514868736 37.9879964590073,36.5671514868736     C 37.9879964590073,36.5671514868736 37.9879964590073,72.0742482542992 37.9879964590073,72.0742482542992     C 37.9879964590073,72.0742482542992 77.5756452679634,72.0742482542992 77.5756452679634,72.0742482542992     C 77.5756452679634,72.0742482542992 77.5756452679634,36.5671514868736 77.5756452679634,36.5671514868736     Z     M 106.455694615841,76.3607423305511     C 106.455694615841,76.3607423305511 12.1948001384735,76.3607423305511 12.1948001384735,76.3607423305511     C 12.1948001384735,76.3607423305511 12.1948001384735,157.572044551373 12.1948001384735,157.572044551373     C 12.1948001384735,157.572044551373 46.1844140291214,157.572044551373 46.1844140291214,157.572044551373     C 46.1844140291214,157.572044551373 46.1844140291214,157.637265086174 46.1844140291214,157.637265086174     C 46.1844140291214,157.637265086174 46.1855276226997,157.637265086174 46.1855276226997,157.637265086174     C 46.1855276226997,157.637265086174 46.1855276226997,157.572044551373 46.1855276226997,157.572044551373     C 46.1855276226997,157.572044551373 46.1844140291214,157.572044551373 46.1844140291214,157.572044551373     C 46.1844140291214,157.572044551373 46.1844140291214,109.704417705536 46.1844140291214,109.704417705536     C 46.1844140291214,103.87067258358 52.1744906306267,99.1415474414825 59.563588321209,99.1415474414825     C 66.9527356624603,99.1415474414825 72.9428122639656,103.87067258358 72.9428122639656,109.704417705536     C 72.9428122639656,109.704417705536 72.9428122639656,156.587615728378 72.9428122639656,156.587615728378     C 72.9428122639656,156.587615728378 72.9771776199341,156.587615728378 72.9771776199341,156.587615728378     C 72.9771776199341,156.587615728378 72.9771776199341,157.572044551373 72.9771776199341,157.572044551373     C 72.9771776199341,157.572044551373 106.455694615841,157.572044551373 106.455694615841,157.572044551373     C 106.455694615841,157.572044551373 106.455694615841,76.3607423305511 106.455694615841,76.3607423305511     Z     M 68.9296692609787,123.198325812817     C 68.9296692609787,123.198325812817 68.9296692609787,111.92913454771 68.9296692609787,111.92913454771     C 68.9296692609787,108.500757336617 65.9737805128098,105.618355572224 61.9647088646889,104.781292319298     C 61.9647088646889,104.781292319298 61.9647088646889,123.198325812817 61.9647088646889,123.198325812817     C 61.9647088646889,123.198325812817 68.9296692609787,123.198325812817 68.9296692609787,123.198325812817     Z     M 58.0055290460587,123.198325812817     C 58.0055290460587,123.198325812817 58.0055290460587,104.638939976692 58.0055290460587,104.638939976692     C 53.5754410028458,105.225166976452 50.1988408565521,108.264999628067 50.1988408565521,111.92913454771     C 50.1988408565521,111.92913454771 50.1988408565521,123.198325812817 50.1988408565521,123.198325812817     C 50.1988408565521,123.198325812817 58.0055290460587,123.198325812817 58.0055290460587,123.198325812817     Z     M 102.790205597878,86.5981608629227     C 102.790205597878,86.5981608629227 102.790205597878,91.2194044589996 102.790205597878,91.2194044589996     C 102.790205597878,91.2194044589996 101.310140430927,91.2194044589996 101.310140430927,91.2194044589996     C 101.310140430927,91.2194044589996 101.310140430927,113.565117776394 101.310140430927,113.565117776394     C 101.310140430927,113.565117776394 77.5552033782005,113.565117776394 77.5552033782005,113.565117776394     C 77.5552033782005,113.565117776394 77.5552033782005,91.2194044589996 77.5552033782005,91.2194044589996     C 77.5552033782005,91.2194044589996 75.7359319329262,91.2194044589996 75.7359319329262,91.2194044589996     C 75.7359319329262,91.2194044589996 75.7359319329262,86.5981608629227 75.7359319329262,86.5981608629227     C 75.7359319329262,86.5981608629227 102.790205597878,86.5981608629227 102.790205597878,86.5981608629227     Z     M 91.0416018366814,110.871693313122     C 91.0416018366814,110.871693313122 98.8008027076721,110.871693313122 98.8008027076721,110.871693313122     C 98.8008027076721,110.871693313122 98.8008027076721,103.108778595924 98.8008027076721,103.108778595924     C 98.8008027076721,103.108778595924 91.0416018366814,103.108778595924 91.0416018366814,103.108778595924     C 91.0416018366814,103.108778595924 91.0416018366814,110.871693313122 91.0416018366814,110.871693313122     Z     M 91.0416018366814,99.8476644158363     C 91.0416018366814,99.8476644158363 98.8008027076721,99.8476644158363 98.8008027076721,99.8476644158363     C 98.8008027076721,99.8476644158363 98.8008027076721,92.0847982764244 98.8008027076721,92.0847982764244     C 98.8008027076721,92.0847982764244 91.0416018366814,92.0847982764244 91.0416018366814,92.0847982764244     C 91.0416018366814,92.0847982764244 91.0416018366814,99.8476644158363 91.0416018366814,99.8476644158363     Z     M 80.0229196548462,110.871693313122     C 80.0229196548462,110.871693313122 87.7820779681206,110.871693313122 87.7820779681206,110.871693313122     C 87.7820779681206,110.871693313122 87.7820779681206,103.108778595924 87.7820779681206,103.108778595924     C 87.7820779681206,103.108778595924 80.0229196548462,103.108778595924 80.0229196548462,103.108778595924     C 80.0229196548462,103.108778595924 80.0229196548462,110.871693313122 80.0229196548462,110.871693313122     Z     M 80.0229196548462,99.8476644158363     C 80.0229196548462,99.8476644158363 87.7820779681206,99.8476644158363 87.7820779681206,99.8476644158363     C 87.7820779681206,99.8476644158363 87.7820779681206,92.0847982764244 87.7820779681206,92.0847982764244     C 87.7820779681206,92.0847982764244 80.0229196548462,92.0847982764244 80.0229196548462,92.0847982764244     C 80.0229196548462,92.0847982764244 80.0229196548462,99.8476644158363 80.0229196548462,99.8476644158363     Z     M 101.310140430927,145.970581233501     C 101.310140430927,145.970581233501 77.5552033782005,145.970581233501 77.5552033782005,145.970581233501     C 77.5552033782005,145.970581233501 77.5552033782005,121.544048190117 77.5552033782005,121.544048190117     C 77.5552033782005,121.544048190117 101.310140430927,121.544048190117 101.310140430927,121.544048190117     C 101.310140430927,121.544048190117 101.310140430927,145.970581233501 101.310140430927,145.970581233501     Z     M 87.7820779681206,124.490261733532     C 87.7820779681206,124.490261733532 80.0229196548462,124.490261733532 80.0229196548462,124.490261733532     C 80.0229196548462,124.490261733532 80.0229196548462,132.253186166286 80.0229196548462,132.253186166286     C 80.0229196548462,132.253186166286 87.7820779681206,132.253186166286 87.7820779681206,132.253186166286     C 87.7820779681206,132.253186166286 87.7820779681206,124.490261733532 87.7820779681206,124.490261733532     Z     M 87.7820779681206,135.514290630817     C 87.7820779681206,135.514290630817 80.0229196548462,135.514290630817 80.0229196548462,135.514290630817     C 80.0229196548462,135.514290630817 80.0229196548462,143.277263641357 80.0229196548462,143.277263641357     C 80.0229196548462,143.277263641357 87.7820779681206,143.277263641357 87.7820779681206,143.277263641357     C 87.7820779681206,143.277263641357 87.7820779681206,135.514290630817 87.7820779681206,135.514290630817     Z     M 98.8008027076721,124.490261733532     C 98.8008027076721,124.490261733532 91.0416018366814,124.490261733532 91.0416018366814,124.490261733532     C 91.0416018366814,124.490261733532 91.0416018366814,132.253186166286 91.0416018366814,132.253186166286     C 91.0416018366814,132.253186166286 98.8008027076721,132.253186166286 98.8008027076721,132.253186166286     C 98.8008027076721,132.253186166286 98.8008027076721,124.490261733532 98.8008027076721,124.490261733532     Z     M 98.8008027076721,135.514290630817     C 98.8008027076721,135.514290630817 91.0416018366814,135.514290630817 91.0416018366814,135.514290630817     C 91.0416018366814,135.514290630817 91.0416018366814,143.277263641357 91.0416018366814,143.277263641357     C 91.0416018366814,143.277263641357 98.8008027076721,143.277263641357 98.8008027076721,143.277263641357     C 98.8008027076721,143.277263641357 98.8008027076721,135.514290630817 98.8008027076721,135.514290630817     Z     M 41.988797724247,113.565117776394     C 41.988797724247,113.565117776394 18.2338606715202,113.565117776394 18.2338606715202,113.565117776394     C 18.2338606715202,113.565117776394 18.2338606715202,91.2194044589996 18.2338606715202,91.2194044589996     C 18.2338606715202,91.2194044589996 16.4343856573105,91.2194044589996 16.4343856573105,91.2194044589996     C 16.4343856573105,91.2194044589996 16.4343856573105,86.5981608629227 16.4343856573105,86.5981608629227     C 16.4343856573105,86.5981608629227 43.4886593222618,86.5981608629227 43.4886593222618,86.5981608629227     C 43.4886593222618,86.5981608629227 43.4886593222618,91.2194044589996 43.4886593222618,91.2194044589996     C 43.4886593222618,91.2194044589996 41.988797724247,91.2194044589996 41.988797724247,91.2194044589996     C 41.988797724247,91.2194044589996 41.988797724247,113.565117776394 41.988797724247,113.565117776394     Z     M 28.4607352614403,92.0847982764244     C 28.4607352614403,92.0847982764244 20.7015769481659,92.0847982764244 20.7015769481659,92.0847982764244     C 20.7015769481659,92.0847982764244 20.7015769481659,99.8476644158363 20.7015769481659,99.8476644158363     C 20.7015769481659,99.8476644158363 28.4607352614403,99.8476644158363 28.4607352614403,99.8476644158363     C 28.4607352614403,99.8476644158363 28.4607352614403,92.0847982764244 28.4607352614403,92.0847982764244     Z     M 28.4607352614403,103.108778595924     C 28.4607352614403,103.108778595924 20.7015769481659,103.108778595924 20.7015769481659,103.108778595924     C 20.7015769481659,103.108778595924 20.7015769481659,110.871693313122 20.7015769481659,110.871693313122     C 20.7015769481659,110.871693313122 28.4607352614403,110.871693313122 28.4607352614403,110.871693313122     C 28.4607352614403,110.871693313122 28.4607352614403,103.108778595924 28.4607352614403,103.108778595924     Z     M 39.4794174432755,92.0847982764244     C 39.4794174432755,92.0847982764244 31.7203016877174,92.0847982764244 31.7203016877174,92.0847982764244     C 31.7203016877174,92.0847982764244 31.7203016877174,99.8476644158363 31.7203016877174,99.8476644158363     C 31.7203016877174,99.8476644158363 39.4794174432755,99.8476644158363 39.4794174432755,99.8476644158363     C 39.4794174432755,99.8476644158363 39.4794174432755,92.0847982764244 39.4794174432755,92.0847982764244     Z     M 39.4794174432755,103.108778595924     C 39.4794174432755,103.108778595924 31.7203016877174,103.108778595924 31.7203016877174,103.108778595924     C 31.7203016877174,103.108778595924 31.7203016877174,110.871693313122 31.7203016877174,110.871693313122     C 31.7203016877174,110.871693313122 39.4794174432755,110.871693313122 39.4794174432755,110.871693313122     C 39.4794174432755,110.871693313122 39.4794174432755,103.108778595924 39.4794174432755,103.108778595924     Z     M 41.988797724247,145.970581233501     C 41.988797724247,145.970581233501 18.2338606715202,145.970581233501 18.2338606715202,145.970581233501     C 18.2338606715202,145.970581233501 18.2338606715202,121.544048190117 18.2338606715202,121.544048190117     C 18.2338606715202,121.544048190117 41.988797724247,121.544048190117 41.988797724247,121.544048190117     C 41.988797724247,121.544048190117 41.988797724247,145.970581233501 41.988797724247,145.970581233501     Z     M 28.4607352614403,124.490261733532     C 28.4607352614403,124.490261733532 20.7015769481659,124.490261733532 20.7015769481659,124.490261733532     C 20.7015769481659,124.490261733532 20.7015769481659,132.253186166286 20.7015769481659,132.253186166286     C 20.7015769481659,132.253186166286 28.4607352614403,132.253186166286 28.4607352614403,132.253186166286     C 28.4607352614403,132.253186166286 28.4607352614403,124.490261733532 28.4607352614403,124.490261733532     Z     M 28.4607352614403,135.514290630817     C 28.4607352614403,135.514290630817 20.7015769481659,135.514290630817 20.7015769481659,135.514290630817     C 20.7015769481659,135.514290630817 20.7015769481659,143.277263641357 20.7015769481659,143.277263641357     C 20.7015769481659,143.277263641357 28.4607352614403,143.277263641357 28.4607352614403,143.277263641357     C 28.4607352614403,143.277263641357 28.4607352614403,135.514290630817 28.4607352614403,135.514290630817     Z     M 39.4794174432755,124.490261733532     C 39.4794174432755,124.490261733532 31.7203016877174,124.490261733532 31.7203016877174,124.490261733532     C 31.7203016877174,124.490261733532 31.7203016877174,132.253186166286 31.7203016877174,132.253186166286     C 31.7203016877174,132.253186166286 39.4794174432755,132.253186166286 39.4794174432755,132.253186166286     C 39.4794174432755,132.253186166286 39.4794174432755,124.490261733532 39.4794174432755,124.490261733532     Z     M 39.4794174432755,135.514290630817     C 39.4794174432755,135.514290630817 31.7203016877174,135.514290630817 31.7203016877174,135.514290630817     C 31.7203016877174,135.514290630817 31.7203016877174,143.277263641357 31.7203016877174,143.277263641357     C 31.7203016877174,143.277263641357 39.4794174432755,143.277263641357 39.4794174432755,143.277263641357     C 39.4794174432755,143.277263641357 39.4794174432755,135.514290630817 39.4794174432755,135.514290630817     Z     M 71.4798411130905,41.2108574509621     C 71.4798411130905,41.2108574509621 69.9198951125145,41.2108574509621 69.9198951125145,41.2108574509621     C 69.9198951125145,41.2108574509621 69.9198951125145,63.1565618515015 69.9198951125145,63.1565618515015     C 69.9198951125145,63.1565618515015 46.1650431752205,63.1565618515015 46.1650431752205,63.1565618515015     C 46.1650431752205,63.1565618515015 46.1650431752205,41.2108574509621 46.1650431752205,41.2108574509621     C 46.1650431752205,41.2108574509621 44.4256170988083,41.2108574509621 44.4256170988083,41.2108574509621     C 44.4256170988083,41.2108574509621 44.4256170988083,36.5896138548851 44.4256170988083,36.5896138548851     C 44.4256170988083,36.5896138548851 71.4798411130905,36.5896138548851 71.4798411130905,36.5896138548851     C 71.4798411130905,36.5896138548851 71.4798411130905,41.2108574509621 71.4798411130905,41.2108574509621     Z     M 56.3919248580933,41.6761937737465     C 56.3919248580933,41.6761937737465 48.6327594518662,41.6761937737465 48.6327594518662,41.6761937737465     C 48.6327594518662,41.6761937737465 48.6327594518662,49.4390599131584 48.6327594518662,49.4390599131584     C 48.6327594518662,49.4390599131584 56.3919248580933,49.4390599131584 56.3919248580933,49.4390599131584     C 56.3919248580933,49.4390599131584 56.3919248580933,41.6761937737465 56.3919248580933,41.6761937737465     Z     M 56.3919248580933,52.700222671032     C 56.3919248580933,52.700222671032 48.6327594518662,52.700222671032 48.6327594518662,52.700222671032     C 48.6327594518662,52.700222671032 48.6327594518662,60.4631373882294 48.6327594518662,60.4631373882294     C 48.6327594518662,60.4631373882294 56.3919248580933,60.4631373882294 56.3919248580933,60.4631373882294     C 56.3919248580933,60.4631373882294 56.3919248580933,52.700222671032 56.3919248580933,52.700222671032     Z     M 67.4106495976448,41.6761937737465     C 67.4106495976448,41.6761937737465 59.6515267491341,41.6761937737465 59.6515267491341,41.6761937737465     C 59.6515267491341,41.6761937737465 59.6515267491341,49.4390599131584 59.6515267491341,49.4390599131584     C 59.6515267491341,49.4390599131584 67.4106495976448,49.4390599131584 67.4106495976448,49.4390599131584     C 67.4106495976448,49.4390599131584 67.4106495976448,41.6761937737465 67.4106495976448,41.6761937737465     Z     M 67.4106495976448,52.700222671032     C 67.4106495976448,52.700222671032 59.6515267491341,52.700222671032 59.6515267491341,52.700222671032     C 59.6515267491341,52.700222671032 59.6515267491341,60.4631373882294 59.6515267491341,60.4631373882294     C 59.6515267491341,60.4631373882294 67.4106495976448,60.4631373882294 67.4106495976448,60.4631373882294     C 67.4106495976448,60.4631373882294 67.4106495976448,52.700222671032 67.4106495976448,52.700222671032     Z     M 33.5894578695297,1.36118841171265     C 33.5894578695297,1.36118841171265 48.784683406353,1.36118841171265 48.784683406353,1.36118841171265     C 48.784683406353,1.36118841171265 48.784683406353,7.76232206821442 48.784683406353,7.76232206821442     C 48.784683406353,7.76232206821442 33.5894578695297,7.76232206821442 33.5894578695297,7.76232206821442     C 33.5894578695297,7.76232206821442 33.5894578695297,1.36118841171265 33.5894578695297,1.36118841171265     Z " fill-rule="nonzero" id="house-shape-PhotoshopSupply.com"/></svg>